<?xml version="1.0" encoding="iso-8859-1"?>
<!-- Uploaded to: SVG Repo, www.svgrepo.com, Generator: SVG Repo Mixer Tools -->
<svg version="1.1" id="Layer_1" xmlns="http://www.w3.org/2000/svg" xmlns:xlink="http://www.w3.org/1999/xlink" 
	 viewBox="0 0 508 508" xml:space="preserve">
<path style="fill:#E9B526;" d="M504,438V66H8v372H504z"/>
<rect x="52" y="118" style="fill:#EDC654;" width="404" height="268"/>
<rect x="80" y="142" style="fill:#CDEEF9;" width="348" height="216"/>
<path style="fill:#3C8E51;" d="M216,193.2l-58,67.6l-32.4-35.2l-48,46c-0.4,0.4,0,86.4,0,86.4H424l0.8-82.8l-52.4-52.4l-63.2,63.6
	L216,193.2z"/>
<path style="fill:#54B265;" d="M213.2,195.6l-62,58l103.2,103.6l130.8,0.4L213.2,195.6z"/>
<path style="fill:#E8BB85;" d="M121.6,226.4l-44,45.6c-0.4,0.4,0,86,0,86l176.4-0.4L121.6,226.4z"/>
<circle style="fill:#E9B526;" cx="302.8" cy="192.4" r="20.4"/>
<path d="M504,446H4c-2.4,0-4-1.6-4-4V66c0-2.4,1.6-4,4-4h500c2.4,0,4,1.6,4,4v376C508,444.4,506.4,446,504,446z M8,438h492V70H8V438
	z"/>
<path d="M452,390H52c-2.4,0-4-1.6-4-4V122c0-2.4,1.6-4,4-4h400c2.4,0,4,1.6,4,4v264C456,388.4,454.4,390,452,390z M56,382h392V126
	H56V382z"/>
<path d="M428,366H76c-2.4,0-4-1.6-4-4V146c0-2.4,1.6-4,4-4h292c2.4,0,4,1.6,4,4s-1.6,4-4,4H80v208h344V150h-8c-2.4,0-4-1.6-4-4
	s1.6-4,4-4h12c2.4,0,4,1.6,4,4v216C432,364.4,430.4,366,428,366z"/>
<path d="M78,271.6c-1.2,0-2-0.4-2.8-1.2c-1.6-1.6-1.6-4,0-5.6l43.6-43.6c1.6-1.6,4-1.6,5.6,0s1.6,4,0,5.6l-43.6,43.6
	C80,271.2,79.2,271.6,78,271.6z"/>
<path d="M194.4,301.2c-1.2,0-2-0.4-2.8-1.2l-73.2-73.2c-1.6-1.6-1.6-4,0-5.6s4-1.6,5.6,0l73.2,73.2c1.6,1.6,1.6,4,0,5.6
	C196.4,300.8,195.6,301.2,194.4,301.2z"/>
<path d="M163.6,249.6c-1.2,0-2-0.4-2.8-1.2c-1.6-1.6-1.6-4,0-5.6l52.4-52.4c1.6-1.6,4-1.6,5.6,0s1.6,4,0,5.6l-52.4,52.4
	C165.6,249.2,164.8,249.6,163.6,249.6z"/>
<path d="M320,279.2c-1.2,0-2-0.4-2.8-1.2c-1.6-1.6-1.6-4,0-5.6l52.4-52.4c1.6-1.6,4-1.6,5.6,0s1.6,4,0,5.6L322.8,278
	C322,278.8,320.8,279.2,320,279.2z"/>
<path d="M337.2,318.4c-1.2,0-2-0.4-2.8-1.2L213.2,196.4c-1.6-1.6-1.6-4,0-5.6s4-1.6,5.6,0L340,311.6c1.6,1.6,1.6,4,0,5.6
	C339.2,318,338,318.4,337.2,318.4z"/>
<path d="M427.6,282c-1.2,0-2-0.4-2.8-1.2l-55.2-55.2c-1.6-1.6-1.6-4,0-5.6s4-1.6,5.6,0l55.2,55.2c1.6,1.6,1.6,4,0,5.6
	C429.6,281.6,428.4,282,427.6,282z"/>
<path d="M304.4,215.6c-13.2,0-24-10.8-24-24s10.8-24,24-24c4.8,0,9.6,1.6,13.6,4.4c2,1.2,2.4,3.6,0.8,5.6c-1.2,2-3.6,2.4-5.6,0.8
	c-2.8-2-6-2.8-9.2-2.8c-8.8,0-16,7.2-16,16s7.2,16,16,16s16-7.2,16-16c0-2.4,1.6-4,4-4s4,1.6,4,4
	C328.4,204.8,317.6,215.6,304.4,215.6z"/>
</svg>